<?xml version="1.0" standalone="no"?>
<!DOCTYPE svg PUBLIC "-//W3C//DTD SVG 20010904//EN"
 "http://www.w3.org/TR/2001/REC-SVG-20010904/DTD/svg10.dtd">
<svg version="1.0" xmlns="http://www.w3.org/2000/svg"
 width="40.000000pt" height="44.000000pt" viewBox="0 0 40.000000 44.000000"
 preserveAspectRatio="xMidYMid meet">

<g transform="translate(0.000000,44.000000) scale(0.100000,-0.100000)"
fill="#000000" stroke="none">
<path d="M125 373 c-3 -16 -14 -36 -22 -45 -13 -14 -13 -20 -3 -33 10 -12 10
-18 0 -30 -6 -8 -10 -19 -8 -26 2 -6 10 1 18 16 11 20 11 30 3 45 -16 24 -7
30 40 30 36 0 39 -2 33 -24 -7 -30 4 -116 15 -116 5 0 9 13 9 28 0 15 5 33 12
40 10 10 8 20 -6 47 -11 19 -23 35 -27 35 -4 0 -10 14 -14 30 -9 39 -40 41
-50 3z m35 -3 c0 -5 -4 -10 -10 -10 -5 0 -10 5 -10 10 0 6 5 10 10 10 6 0 10
-4 10 -10z m3 -27 c-7 -2 -19 -2 -25 0 -7 3 -2 5 12 5 14 0 19 -2 13 -5z m50
-85 c-2 -5 -8 -8 -14 -8 -11 0 -12 33 -2 44 8 8 23 -25 16 -36z"/>
<path d="M90 195 c-7 -8 -18 -15 -25 -15 -16 0 -25 -23 -25 -66 0 -26 5 -37
22 -44 13 -6 30 -15 40 -22 20 -15 48 4 48 33 0 16 8 19 50 19 42 0 50 -3 50
-19 0 -29 28 -48 48 -33 10 7 27 16 40 22 18 8 22 17 22 55 0 38 -4 47 -22 55
-13 6 -30 15 -40 22 -19 13 -48 -4 -48 -28 0 -10 -14 -14 -48 -14 -39 0 -49 4
-57 22 -12 28 -38 34 -55 13z m38 -76 c-2 -36 -7 -63 -13 -62 -11 3 -19 107
-10 131 12 33 26 -7 23 -69z m170 0 c-2 -36 -7 -63 -13 -62 -11 3 -19 107 -10
131 12 33 26 -7 23 -69z m-218 5 c0 -32 -4 -44 -12 -42 -14 5 -23 51 -14 74
11 30 26 12 26 -32z m265 1 c0 -22 -5 -40 -12 -43 -9 -2 -13 10 -13 43 0 33 4
45 13 43 7 -3 12 -21 12 -43z m-95 5 c0 -5 -22 -10 -50 -10 -27 0 -50 5 -50
10 0 6 23 10 50 10 28 0 50 -4 50 -10z"/>
</g>
</svg>
