<?xml version="1.0" standalone="no"?>
<!DOCTYPE svg PUBLIC "-//W3C//DTD SVG 20010904//EN"
 "http://www.w3.org/TR/2001/REC-SVG-20010904/DTD/svg10.dtd">
<svg version="1.0" xmlns="http://www.w3.org/2000/svg"
 width="44.000000pt" height="39.000000pt" viewBox="0 0 44.000000 39.000000"
 preserveAspectRatio="xMidYMid meet">

<g transform="translate(0.000000,39.000000) scale(0.100000,-0.100000)"
fill="#000000" stroke="none">
<path d="M386 345 c-23 -30 -33 -35 -67 -35 -21 0 -39 -4 -39 -10 0 -5 6 -10
13 -10 8 0 7 -4 -3 -10 -13 -9 -13 -11 0 -20 13 -9 13 -11 0 -20 -10 -6 -11
-10 -2 -10 18 0 15 -60 -4 -81 -15 -17 -19 -16 -82 7 -37 14 -70 29 -74 32 -3
4 -9 28 -13 55 -6 39 -5 47 9 47 9 0 16 5 16 10 0 6 -17 10 -39 10 -22 0 -44
6 -51 15 -7 8 -17 15 -23 15 -6 0 0 -11 13 -26 19 -19 21 -27 11 -33 -10 -7
-10 -9 2 -14 8 -3 18 -22 21 -42 6 -31 3 -40 -18 -60 -35 -32 -35 -86 -1 -120
22 -23 31 -25 128 -25 122 0 142 9 135 61 -4 22 -1 40 9 50 18 22 30 89 14 89
-6 0 -11 -15 -11 -33 0 -34 -23 -77 -35 -65 -4 4 0 17 9 30 10 14 17 46 17 83
1 33 4 48 6 33 6 -37 23 -36 23 2 0 17 4 30 9 30 12 0 66 69 59 76 -3 2 -17
-11 -32 -31z m-281 -117 c4 -23 3 -38 -3 -38 -9 0 -22 55 -22 90 1 25 17 -9
25 -52z m35 -73 c0 -10 -10 -15 -27 -16 -16 0 -22 -3 -15 -6 6 -2 12 -18 12
-34 0 -17 6 -32 15 -35 8 -4 15 -13 15 -21 0 -20 -55 -10 -82 14 -24 21 -23
68 2 93 24 24 80 27 80 5z m100 -77 l0 -48 -40 0 c-29 0 -40 4 -40 15 0 9 10
15 28 16 15 1 20 3 11 6 -11 3 -15 12 -11 28 3 17 -1 27 -12 31 -9 3 -16 12
-16 19 0 11 8 10 40 -2 39 -16 40 -17 40 -65z m-65 17 c0 -22 -31 -33 -47 -17
-17 17 -1 44 24 40 15 -2 23 -10 23 -23z m116 15 c25 -14 25 -56 0 -70 -30
-15 -31 -14 -31 35 0 49 1 50 31 35z"/>
</g>
</svg>
