<?xml version="1.0" standalone="no"?>
<!DOCTYPE svg PUBLIC "-//W3C//DTD SVG 20010904//EN"
 "http://www.w3.org/TR/2001/REC-SVG-20010904/DTD/svg10.dtd">
<svg version="1.0" xmlns="http://www.w3.org/2000/svg"
 width="44.000000pt" height="40.000000pt" viewBox="0 0 44.000000 40.000000"
 preserveAspectRatio="xMidYMid meet">

<g transform="translate(0.000000,40.000000) scale(0.100000,-0.100000)"
fill="#000000" stroke="none">
<path d="M90 358 c0 -21 0 -21 -15 -2 -13 18 -14 18 -15 1 0 -13 -5 -17 -19
-12 -21 6 -34 -15 -25 -40 7 -17 24 -20 24 -5 0 18 20 11 20 -7 1 -16 2 -16
15 1 15 19 15 19 15 -2 0 -29 17 -28 23 1 2 12 5 -40 6 -115 0 -86 -3 -138 -9
-138 -5 0 -10 -4 -10 -10 0 -5 14 -10 30 -10 17 0 30 5 30 10 0 6 -4 10 -10
10 -6 0 -10 52 -10 135 l0 135 70 0 70 0 0 -135 c0 -83 -4 -135 -10 -135 -5 0
-10 -4 -10 -10 0 -5 14 -10 30 -10 17 0 30 5 30 10 0 6 -4 10 -10 10 -6 0 -10
52 -9 138 0 109 3 132 11 112 11 -25 11 -25 15 -2 5 25 23 31 23 7 0 -8 5 -15
10 -15 6 0 10 8 10 18 0 14 2 15 10 2 9 -13 11 -13 20 0 5 8 10 20 10 27 0 18
-21 27 -30 13 -5 -8 -10 -4 -15 12 -6 19 -8 20 -12 6 -6 -25 -21 -22 -26 5
l-4 22 -8 -22 c-4 -12 -13 -19 -20 -17 -7 3 -16 1 -20 -5 -3 -6 -33 -11 -66
-11 -46 0 -61 4 -66 16 -6 15 -8 15 -20 -2 -12 -16 -13 -16 -13 9 0 15 -4 27
-10 27 -5 0 -10 -10 -10 -22z"/>
</g>
</svg>
