<?xml version="1.0" standalone="no"?>
<!DOCTYPE svg PUBLIC "-//W3C//DTD SVG 20010904//EN"
 "http://www.w3.org/TR/2001/REC-SVG-20010904/DTD/svg10.dtd">
<svg version="1.0" xmlns="http://www.w3.org/2000/svg"
 width="41.000000pt" height="40.000000pt" viewBox="0 0 41.000000 40.000000"
 preserveAspectRatio="xMidYMid meet">

<g transform="translate(0.000000,40.000000) scale(0.100000,-0.100000)"
fill="#000000" stroke="none">
<path d="M290 370 c0 -5 -6 -10 -14 -10 -8 0 -21 -7 -30 -15 -12 -12 -20 -13
-40 -4 -20 9 -29 9 -41 -1 -12 -10 -18 -10 -31 1 -12 10 -20 10 -35 1 -15 -9
-23 -9 -38 0 -37 23 -68 -25 -35 -53 12 -10 20 -10 35 -1 15 9 23 9 38 0 15
-9 23 -9 35 1 11 9 20 10 35 1 15 -8 26 -7 40 2 16 10 23 9 39 -5 10 -9 24
-17 30 -17 7 0 12 -4 12 -10 0 -5 23 -10 50 -10 47 0 50 2 50 25 0 23 -3 25
-49 25 -28 0 -51 -5 -53 -11 -6 -18 -50 9 -46 28 4 22 39 42 45 26 3 -8 24
-13 54 -13 46 0 49 2 49 25 0 23 -3 25 -50 25 -27 0 -50 -4 -50 -10z m88 -17
c2 -9 -9 -13 -37 -13 -39 0 -50 8 -34 24 11 11 66 2 71 -11z m-317 -46 c-5 -5
-17 -7 -26 -3 -14 5 -15 9 -5 21 10 12 16 13 27 4 9 -8 10 -16 4 -22z m70 0
c-5 -5 -17 -7 -26 -3 -14 5 -15 9 -5 21 10 12 16 13 27 4 9 -8 10 -16 4 -22z
m79 7 c0 -8 -8 -14 -18 -14 -25 0 -34 11 -21 26 13 15 39 7 39 -12z m168 -36
c-6 -17 -70 -17 -75 0 -3 8 8 12 37 12 29 0 40 -4 38 -12z"/>
<path d="M20 140 l0 -60 35 0 c26 0 35 4 36 18 4 59 2 57 52 60 38 3 49 0 54
-15 6 -15 8 -12 13 12 4 21 11 30 25 30 14 0 22 -9 26 -30 6 -29 7 -29 8 8 1
36 0 37 -34 37 -24 0 -35 -5 -35 -15 0 -12 -13 -15 -55 -15 -42 0 -55 3 -55
15 0 10 -11 15 -35 15 l-35 0 0 -60z m58 -3 c3 -45 2 -47 -22 -47 -24 0 -26 4
-26 43 0 48 6 59 30 55 10 -2 16 -17 18 -51z"/>
<path d="M110 80 l0 -60 35 0 c24 0 35 5 35 15 0 12 13 15 55 15 42 0 55 -3
55 -15 0 -10 11 -15 35 -15 l35 0 0 60 0 60 -35 0 c-24 0 -35 -5 -35 -15 0
-12 -13 -15 -55 -15 -42 0 -55 3 -55 15 0 10 -11 15 -35 15 l-35 0 0 -60z m58
3 c-3 -40 -6 -48 -23 -48 -17 0 -20 8 -23 48 -3 45 -2 47 23 47 25 0 26 -2 23
-47z m180 0 c-3 -40 -6 -48 -23 -48 -17 0 -20 8 -23 48 -3 45 -2 47 23 47 25
0 26 -2 23 -47z m-60 0 c-5 -26 -101 -26 -106 0 -3 14 5 17 53 17 48 0 56 -3
53 -17z"/>
</g>
</svg>
