<?xml version="1.0" standalone="no"?>
<!DOCTYPE svg PUBLIC "-//W3C//DTD SVG 20010904//EN"
 "http://www.w3.org/TR/2001/REC-SVG-20010904/DTD/svg10.dtd">
<svg version="1.0" xmlns="http://www.w3.org/2000/svg"
 width="41.000000pt" height="39.000000pt" viewBox="0 0 41.000000 39.000000"
 preserveAspectRatio="xMidYMid meet">

<g transform="translate(0.000000,39.000000) scale(0.100000,-0.100000)"
fill="#000000" stroke="none">
<path d="M145 356 c-17 -7 -43 -28 -59 -46 -25 -31 -91 -150 -84 -154 2 0 13
-9 24 -19 21 -17 22 -17 55 34 31 48 33 50 41 29 5 -13 4 -47 -2 -78 -16 -86
-14 -90 29 -103 48 -14 130 -4 138 17 3 8 1 43 -4 77 -6 33 -7 72 -3 86 6 25
7 24 41 -26 l34 -51 23 19 23 18 -36 68 c-46 87 -65 110 -109 128 -43 18 -71
18 -111 1z m83 -5 c11 -6 10 -15 -4 -44 -19 -40 -27 -40 -50 5 -13 25 -14 32
-2 39 17 11 39 11 56 0z m-57 -52 c19 -37 20 -46 9 -85 -13 -45 -35 -58 -44
-26 -9 35 -17 132 -11 142 12 19 25 10 46 -31z m102 -35 c-2 -38 -5 -75 -8
-81 -6 -17 -85 -17 -85 0 0 7 16 45 35 86 44 92 61 90 58 -5z m-189 -69 c-31
-47 -39 -53 -55 -44 -19 9 -18 11 2 52 12 23 33 58 47 76 l26 35 8 -32 c7 -27
3 -39 -28 -87z m247 72 c49 -78 59 -103 46 -116 -18 -18 -22 -14 -58 42 -25
38 -33 61 -31 85 2 17 6 32 10 32 4 0 19 -19 33 -43z m-175 -138 c-3 -17 -6
-44 -6 -60 0 -20 -5 -29 -16 -29 -13 0 -15 8 -9 53 8 58 12 67 27 67 6 0 8
-12 4 -31z m31 -21 c-2 -29 -2 -41 0 -25 5 33 23 36 24 5 0 -13 3 -18 5 -11 3
6 1 28 -5 48 l-10 36 32 -3 c30 -3 33 -6 41 -56 11 -65 4 -73 -60 -75 -45 -2
-49 0 -52 22 -6 36 8 111 19 111 6 0 9 -21 6 -52z"/>
</g>
</svg>
