<?xml version="1.0" standalone="no"?>
<!DOCTYPE svg PUBLIC "-//W3C//DTD SVG 20010904//EN"
 "http://www.w3.org/TR/2001/REC-SVG-20010904/DTD/svg10.dtd">
<svg version="1.0" xmlns="http://www.w3.org/2000/svg"
 width="41.000000pt" height="42.000000pt" viewBox="0 0 41.000000 42.000000"
 preserveAspectRatio="xMidYMid meet">

<g transform="translate(0.000000,42.000000) scale(0.100000,-0.100000)"
fill="#000000" stroke="none">
<path d="M155 365 c-23 -23 -25 -31 -25 -132 l0 -108 -30 -13 c-22 -10 -34
-11 -50 -2 -12 6 -29 9 -38 7 -31 -7 40 -29 73 -22 17 3 38 5 48 5 39 -2 93
-3 112 -1 11 1 34 -1 50 -4 30 -7 100 14 78 22 -7 2 -21 -1 -33 -7 -15 -8 -29
-8 -55 1 l-35 13 0 106 c0 93 3 109 19 124 26 24 72 17 87 -12 16 -32 24 -38
24 -18 0 25 -45 66 -73 66 -33 0 -67 -40 -67 -78 0 -31 -1 -32 -45 -32 -44 0
-45 1 -45 33 0 40 15 57 52 57 15 0 28 5 28 10 0 20 -51 10 -75 -15z m85 -135
c0 -29 -2 -30 -45 -30 -43 0 -45 1 -45 30 0 29 2 30 45 30 43 0 45 -1 45 -30z
m0 -78 c0 -20 -7 -33 -24 -41 -34 -19 -66 0 -66 39 0 29 2 30 45 30 43 0 45
-1 45 -28z"/>
<path d="M34 42 c24 -11 38 -11 64 -2 26 9 40 9 63 0 23 -10 35 -10 58 0 23 9
37 9 63 0 26 -9 40 -9 65 2 29 12 13 14 -156 14 -167 -1 -185 -2 -157 -14z"/>
</g>
</svg>
