<?xml version="1.0" standalone="no"?>
<!DOCTYPE svg PUBLIC "-//W3C//DTD SVG 20010904//EN"
 "http://www.w3.org/TR/2001/REC-SVG-20010904/DTD/svg10.dtd">
<svg version="1.0" xmlns="http://www.w3.org/2000/svg"
 width="40.000000pt" height="40.000000pt" viewBox="0 0 40.000000 40.000000"
 preserveAspectRatio="xMidYMid meet">

<g transform="translate(0.000000,40.000000) scale(0.100000,-0.100000)"
fill="#000000" stroke="none">
<path d="M184 368 c-23 -11 -44 -48 -44 -77 0 -10 9 -30 20 -44 11 -14 20 -30
20 -36 0 -21 -37 -11 -65 19 -37 39 -51 38 -65 -5 -23 -69 13 -175 66 -195 62
-24 146 -4 178 42 23 32 21 109 -3 135 -23 25 -18 33 20 33 18 0 35 9 48 26
29 37 27 44 -19 44 -22 0 -40 5 -40 10 0 6 -11 22 -25 35 -25 26 -56 31 -91
13z m80 -19 c30 -24 34 -63 10 -97 -14 -21 -14 -24 5 -48 31 -39 28 -96 -7
-135 -23 -26 -38 -33 -80 -37 -38 -3 -58 0 -77 12 -48 31 -77 123 -55 176 l12
30 35 -30 c57 -50 108 -30 64 26 -33 42 -23 96 22 114 33 13 42 12 71 -11z
m96 -58 c0 -16 -30 -41 -49 -41 -14 0 -17 6 -13 25 3 20 10 25 33 25 16 0 29
-4 29 -9z"/>
<path d="M206 325 c-9 -24 4 -45 29 -45 29 0 38 13 30 40 -8 24 -50 27 -59 5z
m44 -2 c0 -5 -5 -15 -10 -23 -7 -11 -12 -12 -21 -3 -6 6 -8 16 -5 22 8 12 36
15 36 4z"/>
<path d="M150 155 c-38 -14 -40 -28 -8 -62 47 -51 117 -4 92 61 -7 19 -36 19
-84 1z m78 -21 c3 -24 -21 -54 -44 -54 -15 0 -54 35 -54 48 0 11 51 31 75 29
12 -1 21 -10 23 -23z"/>
</g>
</svg>
